<svg width="255" height="76" viewBox="0 0 255 76" fill="none" xmlns="http://www.w3.org/2000/svg">
<g clip-path="url(#clip0_106_4304)">
<path d="M164.169 60.8677H157.999V58.512C155.43 61.1392 147.425 64.0584 142.491 59.4692C141.017 58.1046 140.398 56.6586 140.154 54.6152C139.916 52.5854 140.439 47.5753 148.675 45.7966C153.072 44.8462 158.067 45.0295 158.067 45.0295C158.067 40.1824 155.967 37.6841 152.413 37.3175C149.722 37.046 146.813 38.4241 144.476 40.1891L142.763 37.7248C145.305 35.2945 148.866 33.5022 152.943 33.5498C161.125 33.6516 164.176 38.9332 164.176 44.8191V60.8609L164.169 60.8677ZM158.067 52.6533V48.0573C158.067 48.0573 153.792 47.7586 150.51 48.7226C148.553 49.2996 146.195 50.5556 145.957 53.2643C145.631 56.9506 148.879 58.3898 150.938 58.3151C154.934 58.1657 158.074 55.1108 158.074 51.6485" fill="#231815"/>
<path d="M181.75 35.0839L190.577 24.9551H190.964V33.5361H196.829V36.4756H190.964V53.4271C190.964 57.5139 192.908 60.1955 196.34 60.2973L196.353 61.5057C192.133 61.5057 190.197 60.9762 187.716 59.1093C187.125 58.668 186.676 58.0909 186.303 57.4867C185.936 56.8825 185.623 56.0951 185.365 55.1311C185.12 54.1603 184.991 52.3069 184.991 49.5779V36.4756H181.756V35.0907L181.75 35.0839Z" fill="#231815"/>
<path d="M236.448 33.6855V37.8878C239.118 34.9347 241.409 33.6855 244.8 33.6855C253.158 33.6855 255 40.0873 255 47.1748V60.9763H249.027V46.5163C249.027 42.8639 248.279 37.9217 242.89 37.9217C240.07 37.9217 237.596 39.9516 236.448 42.1443V60.9763H230.352V37.9217L235.911 33.6923H236.455L236.448 33.6855Z" fill="#231815"/>
<path d="M176.599 60.9761H170.503V16.6727L176.062 12.4501L176.599 12.4434V60.9761Z" fill="#231815"/>
<path d="M212.045 33.6387C203.802 33.6387 198.82 39.8775 198.82 47.5692C198.82 55.2608 203.856 61.5133 212.045 61.5133C220.233 61.5133 225.262 55.2676 225.262 47.5692C225.262 39.8707 220.281 33.6387 212.045 33.6387ZM212.045 58.6688C207.607 58.6688 204.882 53.7062 204.882 47.5624C204.882 41.4186 207.58 36.4628 212.045 36.4628C216.509 36.4628 219.207 41.4321 219.207 47.5624C219.207 53.6926 216.475 58.6688 212.045 58.6688Z" fill="#231815"/>
<path d="M113.752 17.2705H94.3643V18.8048C97.932 18.8659 98.9785 20.6445 98.9785 24.1407V60.9561H112.848C116.736 60.9561 136.654 59.1503 136.654 39.1574C136.654 19.1646 119.712 17.2705 113.759 17.2705H113.752ZM112.848 58.1252H108.839C106.984 58.1252 106.712 57.3309 106.712 55.9664V22.1041C106.712 20.7803 107.731 20.081 109.009 20.081H112.848C120.011 20.081 128.981 24.5345 128.981 38.8112C128.981 53.0879 119.664 58.1184 112.848 58.1184V58.1252Z" fill="#231815"/>
<path d="M37.6139 0H0L0.020387 3.32649C0.020387 3.32649 6.7209 3.12961 6.7209 8.21438V18.4993H7.28494L18.3007 7.09424C20.2374 5.15945 21.8616 4.51452 25.2119 4.51452H30.9474C49.4248 4.51452 61.6298 18.8116 61.6298 37.2702C61.6298 52.4974 54.6982 69.6457 35.4801 71.5805L31.9531 75.4026H35.5073C57.233 75.4026 74.9085 57.8401 74.9085 37.2566C74.9085 16.6732 58.2115 0 37.6139 0Z" fill="#231815"/>
<path d="M31.9396 66.475C31.097 67.9617 29.2078 70.1817 25.3818 70.1817C20.2647 70.1817 19.0279 65.0154 19.0279 60.8811V31.0989H29.2689V27.9489H19.0279V13.5703H18.525L2.73193 30.1145V31.384H6.72778V61.2341C6.72778 70.589 12.6196 75.9996 20.1424 75.9996C29.466 75.9996 33.0337 69.3466 34.1482 66.475H31.9396Z" fill="#231815"/>
</g>
<defs>
<clipPath id="clip0_106_4304">
<rect width="255" height="76" fill="white"/>
</clipPath>
</defs>
</svg>
