<svg width="238" height="74" viewBox="0 0 238 74" fill="none" xmlns="http://www.w3.org/2000/svg">
<path d="M103.58 71.6601H94.5V68.1901C90.72 72.0601 78.94 76.3601 71.68 69.6001C69.51 67.5901 68.6 65.4601 68.24 62.4501C67.89 59.4601 68.66 52.0801 80.78 49.4601C87.25 48.0601 94.6 48.3301 94.6 48.3301C94.6 41.1901 91.51 37.5101 86.28 36.9701C82.32 36.5701 78.04 38.6001 74.6 41.2001L72.08 37.5701C75.82 33.9901 81.06 31.3501 87.06 31.4201C99.1 31.5701 103.59 39.3501 103.59 48.0201V71.6501L103.58 71.6601ZM94.6 59.5601V52.7901C94.6 52.7901 88.31 52.3501 83.48 53.7701C80.6 54.6201 77.13 56.4701 76.78 60.4601C76.3 65.8901 81.08 68.0101 84.11 67.9001C89.99 67.6801 94.61 63.1801 94.61 58.0801" fill="#231815"/>
<path d="M129.45 33.68L142.44 18.76H143.01V31.4H151.64V35.73H143.01V60.7C143.01 66.72 145.87 70.67 150.92 70.82L150.94 72.6C144.73 72.6 141.88 71.82 138.23 69.07C137.36 68.42 136.7 67.57 136.15 66.68C135.61 65.79 135.15 64.63 134.77 63.21C134.41 61.78 134.22 59.05 134.22 55.03V35.73H129.46V33.69L129.45 33.68Z" fill="#231815"/>
<path d="M209.94 31.6201V37.8101C213.87 33.4601 217.24 31.6201 222.23 31.6201C234.53 31.6201 237.24 41.0501 237.24 51.4901V71.8201H228.45V50.5201C228.45 45.1401 227.35 37.8601 219.42 37.8601C215.27 37.8601 211.63 40.8501 209.94 44.0801V71.8201H200.97V37.8601L209.15 31.6301H209.95L209.94 31.6201Z" fill="#231815"/>
<path d="M121.87 71.8201H112.9V6.56008L121.08 0.340078L121.87 0.330078V71.8201Z" fill="#231815"/>
<path d="M174.03 31.55C161.9 31.55 154.57 40.74 154.57 52.07C154.57 63.4 161.98 72.6101 174.03 72.6101C186.08 72.6101 193.48 63.41 193.48 52.07C193.48 40.73 186.15 31.55 174.03 31.55ZM174.03 68.42C167.5 68.42 163.49 61.11 163.49 52.06C163.49 43.01 167.46 35.71 174.03 35.71C180.6 35.71 184.57 43.03 184.57 52.06C184.57 61.09 180.55 68.42 174.03 68.42Z" fill="#231815"/>
<path d="M29.39 7.43994H0.859985V9.69994C6.10999 9.78994 7.64998 12.4099 7.64998 17.5599V71.7899H28.06C33.78 71.7899 63.09 69.1299 63.09 39.6799C63.09 10.2299 38.16 7.43994 29.4 7.43994H29.39ZM28.06 67.6199H22.16C19.43 67.6199 19.03 66.4499 19.03 64.4399V14.5599C19.03 12.6099 20.53 11.5799 22.41 11.5799H28.06C38.6 11.5799 51.8 18.1399 51.8 39.1699C51.8 60.1999 38.09 67.6099 28.06 67.6099V67.6199Z" fill="#231815"/>
</svg>
