<svg width="126" height="37" viewBox="0 0 126 37" fill="none" xmlns="http://www.w3.org/2000/svg">
<path d="M80.5573 29.6388H77.5278V28.4856C76.2661 29.7661 72.3376 31.1889 69.92 28.9573C69.1948 28.2909 68.885 27.587 68.7717 26.591C68.6584 25.6026 68.9077 23.1614 72.9495 22.3002C75.1102 21.8359 77.5656 21.9258 77.5656 21.9258C77.5656 19.5669 76.5306 18.3463 74.7854 18.1741C73.4633 18.0393 72.043 18.7133 70.8871 19.5744L70.0485 18.3688C71.295 17.1856 73.0402 16.3095 75.0423 16.332C79.0615 16.3844 80.5573 18.9529 80.5573 21.8209V29.6313V29.6388ZM77.5656 25.64V23.401C77.5656 23.401 75.4653 23.2512 73.8561 23.723C72.8967 24.0075 71.7408 24.6141 71.6199 25.9395C71.4537 27.7367 73.0478 28.4332 74.0601 28.3957C76.0244 28.3283 77.5656 26.8381 77.5656 25.1533" fill="white"/>
<path d="M89.1853 17.0812L93.5142 12.1538H93.7031V16.3323H96.5815V17.7626H93.7031V26.0148C93.7031 28.0067 94.655 29.3096 96.3398 29.3621V29.9536C94.2773 29.9536 93.3254 29.6916 92.109 28.7855C91.8144 28.5683 91.6029 28.2912 91.414 27.9992C91.2327 27.7071 91.0816 27.3252 90.9531 26.846C90.8323 26.3742 90.7718 25.4756 90.7718 24.1427V17.7626H89.1777V17.0886L89.1853 17.0812Z" fill="white"/>
<path d="M116.027 16.3994V18.4437C117.334 17.006 118.459 16.3994 120.121 16.3994C124.224 16.3994 125.123 19.5146 125.123 22.9667V29.6838H122.191V22.6447C122.191 20.87 121.821 18.4587 119.177 18.4587C117.794 18.4587 116.578 19.4472 116.019 20.518V29.6838H113.027V18.4587L115.755 16.3994H116.027Z" fill="white"/>
<path d="M86.6614 29.6914H83.6621V8.11741L86.3894 6.05811H86.6614V29.6914Z" fill="white"/>
<path d="M104.052 16.377C100.003 16.377 97.5625 19.4097 97.5625 23.1614C97.5625 26.9131 100.033 29.9459 104.052 29.9459C108.071 29.9459 110.534 26.9056 110.534 23.1614C110.534 19.4172 108.094 16.377 104.052 16.377ZM104.052 28.5605C101.876 28.5605 100.539 26.1418 100.539 23.1539C100.539 20.1661 101.861 17.7473 104.052 17.7473C106.243 17.7473 107.573 20.1586 107.573 23.1539C107.573 26.1493 106.236 28.5605 104.052 28.5605Z" fill="white"/>
<path d="M55.8163 8.40967H46.3047V9.15102C48.0574 9.18097 48.5636 10.0496 48.5636 11.757V29.6841H55.3706C57.2744 29.6841 67.0504 28.8005 67.0504 19.0731C67.0504 9.34571 58.74 8.41716 55.8163 8.41716V8.40967ZM55.3781 28.2988H53.4138C52.5073 28.2988 52.3713 27.9094 52.3713 27.2504V10.761C52.3713 10.117 52.8699 9.78004 53.4969 9.78004H55.3781C58.8911 9.78004 63.2956 11.9442 63.2956 18.9009C63.2956 25.8576 58.7249 28.2988 55.3781 28.2988Z" fill="white"/>
<path d="M18.4566 0H0V1.61749C0 1.61749 3.30149 1.52014 3.30149 3.99879V9.00101H3.58102L8.99033 3.45214C9.93469 2.5086 10.7355 2.19409 12.3825 2.19409H15.2005C24.2663 2.19409 30.2574 9.15078 30.2574 18.1443C30.2574 25.5578 26.8577 33.8998 17.4291 34.8508L15.6991 36.708H17.4443C28.1042 36.708 36.7772 28.1562 36.7772 18.1293C36.7772 8.10241 28.5651 0 18.4566 0Z" fill="white"/>
<path d="M15.6695 32.3646C15.254 33.091 14.3248 34.1693 12.4511 34.1693C9.93536 34.1693 9.33097 31.6532 9.33097 29.6389V15.1339H14.355V13.5988H9.33097V6.59717H9.08166L1.33789 14.6621V15.2762H3.30216V29.8111C3.30216 34.364 6.18813 36.9999 9.88248 36.9999C14.4532 36.9999 16.2059 33.7649 16.7499 32.3646H15.6695Z" fill="white"/>
</svg>
