<svg width="38" height="86" viewBox="0 0 38 86" fill="none" xmlns="http://www.w3.org/2000/svg">
<g clip-path="url(#clip0_1_863)">
<path d="M27.2099 9.13961C27.2099 13.7196 23.4999 17.4296 18.9199 17.4296C14.3399 17.4296 10.6299 13.7196 10.6299 9.13961C10.6299 4.55961 14.3399 0.849609 18.9199 0.849609C23.4999 0.849609 27.2099 4.55961 27.2099 9.13961Z" fill="white"/>
<path d="M18.9198 18.27C13.8798 18.27 9.77979 14.17 9.77979 9.13C9.77979 4.09 13.8798 0 18.9198 0C23.9598 0 28.0498 4.1 28.0498 9.14C28.0498 14.18 23.9498 18.28 18.9198 18.28V18.27ZM18.9198 1.7C14.8198 1.7 11.4798 5.04 11.4798 9.14C11.4798 13.24 14.8198 16.58 18.9198 16.58C23.0198 16.58 26.3598 13.24 26.3598 9.14C26.3598 5.04 23.0198 1.7 18.9198 1.7Z" fill="#1D1E1E"/>
<path d="M17.6196 52.3894H16.9096V80.3994C16.9096 82.6094 15.1596 84.4094 12.9996 84.4094C10.8396 84.4094 9.09961 82.6194 9.09961 80.3994V52.3894V30.8094H6.39961V48.9694C6.39961 50.4994 5.15961 51.7494 3.61961 51.7494C2.07961 51.7494 0.849609 50.5094 0.849609 48.9694V25.0294C0.869609 24.4194 1.01961 23.8594 1.23961 23.3694C2.60961 20.0394 6.72961 19.8594 6.72961 19.8594H30.5996C30.5996 19.8594 34.7196 20.0394 36.0896 23.3694C36.3096 23.8594 36.4596 24.4094 36.4796 25.0294V48.9694C36.4796 50.4994 35.2396 51.7494 33.7096 51.7494C32.1796 51.7494 30.9296 50.5094 30.9296 48.9694V30.8094H28.2296V80.4094C28.2296 82.6194 26.4796 84.4194 24.3196 84.4194C22.1596 84.4194 20.4196 82.6294 20.4196 80.4094V52.3994H17.6296L17.6196 52.3894Z" fill="#52A2C6"/>
<path d="M24.3198 85.2598C21.6998 85.2598 19.5698 83.0798 19.5698 80.3998V53.2398H17.7598V80.3998C17.7598 83.0798 15.6298 85.2598 12.9998 85.2598C10.3698 85.2598 8.24977 83.0798 8.24977 80.3998V52.4898C8.24977 52.4898 8.24977 52.4198 8.24977 52.3898V31.6598H7.24977V48.9698C7.24977 50.9698 5.61977 52.5998 3.62977 52.5998C1.63977 52.5998 0.00976562 50.9698 0.00976562 48.9698V25.0298C0.0297656 24.3298 0.179766 23.6598 0.469766 23.0198C2.00977 19.2598 6.50977 19.0198 6.69977 19.0098H30.6098C30.8398 19.0098 35.3298 19.2498 36.8798 23.0398C37.1598 23.6498 37.3098 24.3198 37.3298 24.9998V48.9598C37.3298 50.9598 35.7098 52.5898 33.7098 52.5898C31.7098 52.5898 30.0898 50.9598 30.0898 48.9598V31.6498H29.0898V80.3998C29.0898 83.0798 26.9598 85.2598 24.3298 85.2598H24.3198ZM16.9098 51.5398H20.4198C20.8898 51.5398 21.2698 51.9198 21.2698 52.3898V80.3998C21.2698 82.1398 22.6398 83.5598 24.3198 83.5598C25.9998 83.5598 27.3798 82.1398 27.3798 80.3998V30.7998C27.3798 30.3298 27.7598 29.9498 28.2298 29.9498H30.9298C31.3998 29.9498 31.7798 30.3298 31.7798 30.7998V48.9598C31.7798 50.0198 32.6398 50.8898 33.7098 50.8898C34.7798 50.8898 35.6298 50.0298 35.6298 48.9598V25.0198C35.6198 24.5898 35.5098 24.1398 35.3198 23.7098C34.1698 20.9098 30.5998 20.6998 30.5698 20.6998H6.72977C6.72977 20.6998 3.16977 20.9098 2.02977 23.6798C1.81977 24.1398 1.71977 24.5898 1.69977 25.0398V48.9598C1.69977 50.0198 2.55977 50.8898 3.61977 50.8898C4.67977 50.8898 5.54977 50.0298 5.54977 48.9598V30.7998C5.54977 30.3298 5.92977 29.9498 6.39977 29.9498H9.09977C9.56977 29.9498 9.94977 30.3298 9.94977 30.7998V52.2798C9.94977 52.2798 9.94977 52.3498 9.94977 52.3798V80.3898C9.94977 82.1298 11.3198 83.5498 12.9998 83.5498C14.6798 83.5498 16.0598 82.1298 16.0598 80.3898V52.3798C16.0598 51.9098 16.4398 51.5298 16.9098 51.5298V51.5398Z" fill="#1D1E1E"/>
</g>
<defs>
<clipPath id="clip0_1_863">
<rect width="37.32" height="85.26" fill="white"/>
</clipPath>
</defs>
</svg>
