<svg width="58" height="58" viewBox="0 0 58 58" fill="none" xmlns="http://www.w3.org/2000/svg">
<path d="M14 17C14 20.9782 15.5804 24.7936 18.3934 27.6066C21.2064 30.4196 25.0218 32 29 32C32.9782 32 36.7936 30.4196 39.6066 27.6066C42.4196 24.7936 44 20.9782 44 17C44 13.0218 42.4196 9.20644 39.6066 6.3934C36.7936 3.58035 32.9782 2 29 2C25.0218 2 21.2064 3.58035 18.3934 6.3934C15.5804 9.20644 14 13.0218 14 17Z" stroke="black" stroke-width="2.5" stroke-linecap="round" stroke-linejoin="round"/>
<path d="M17.0002 26C13.6207 26.0002 10.3403 27.1416 7.69062 29.2392C5.04091 31.3368 3.17719 34.2677 2.40148 37.557C1.62577 40.8463 1.98354 44.3011 3.41681 47.3616C4.85007 50.4221 7.27484 52.9089 10.2982 54.4191C13.3215 55.9292 16.7662 56.3742 20.074 55.6819C23.3818 54.9895 26.3589 53.2004 28.5228 50.6046C30.6867 48.0087 31.9106 44.7582 31.9962 41.3798C32.0817 38.0014 31.024 34.6931 28.9942 31.991" stroke="black" stroke-width="2.5" stroke-linecap="round" stroke-linejoin="round"/>
<path d="M29.0059 50.009C30.5412 52.0529 32.5734 53.6706 34.9096 54.7083C37.2458 55.7461 39.8085 56.1696 42.3544 55.9386C44.9003 55.7077 47.3449 54.8299 49.4562 53.3886C51.5675 51.9473 53.2754 49.9904 54.4179 47.7035C55.5603 45.4166 56.0993 42.8758 55.9838 40.322C55.8682 37.7683 55.102 35.2865 53.7577 33.1121C52.4134 30.9378 50.5357 29.143 48.3029 27.8983C46.0701 26.6536 43.5562 26.0001 40.9999 26" stroke="black" stroke-width="2.5" stroke-linecap="round" stroke-linejoin="round"/>
</svg>
