<svg width="39" height="85" viewBox="0 0 39 85" fill="none" xmlns="http://www.w3.org/2000/svg">
<g clip-path="url(#clip0_1_875)">
<path d="M27.3197 9.13961C27.3197 13.7196 23.6097 17.4296 19.0297 17.4296C14.4497 17.4296 10.7397 13.7196 10.7397 9.13961C10.7397 4.55961 14.4597 0.849609 19.0397 0.849609C23.6197 0.849609 27.3297 4.55961 27.3297 9.13961H27.3197Z" fill="white"/>
<path d="M19.0399 18.27C13.9999 18.27 9.8999 14.17 9.8999 9.13C9.8999 4.09 13.9999 0 19.0399 0C24.0799 0 28.1699 4.1 28.1699 9.14C28.1699 14.18 24.0699 18.28 19.0399 18.28V18.27ZM19.0399 1.7C14.9399 1.7 11.5999 5.04 11.5999 9.14C11.5999 13.24 14.9399 16.58 19.0399 16.58C23.1399 16.58 26.4799 13.24 26.4799 9.14C26.4799 5.04 23.1399 1.7 19.0399 1.7Z" fill="#1D1E1E"/>
<path d="M11.03 80.0408C11.03 82.2508 12.56 84.0508 14.44 84.0508C16.32 84.0508 17.85 82.2608 17.85 80.0408V52.5908H11.02V80.0408H11.03Z" fill="white"/>
<path d="M14.4402 84.8905C12.0902 84.8905 10.1802 82.7105 10.1802 80.0305V52.5805C10.1802 52.1105 10.5602 51.7305 11.0302 51.7305H17.8602C18.3302 51.7305 18.7102 52.1105 18.7102 52.5805V80.0305C18.7102 82.7105 16.8002 84.8905 14.4502 84.8905H14.4402ZM11.8802 53.4305V80.0305C11.8802 81.7705 13.0302 83.1905 14.4402 83.1905C15.8502 83.1905 17.0002 81.7705 17.0002 80.0305V53.4305H11.8702H11.8802Z" fill="#1D1E1E"/>
<path d="M20.4102 52.5801V80.0301C20.4102 82.2401 21.9402 84.0401 23.8202 84.0401C25.7002 84.0401 27.2402 82.2501 27.2402 80.0301V52.5801H20.4102Z" fill="white"/>
<path d="M23.8201 84.8905C21.4701 84.8905 19.5601 82.7105 19.5601 80.0305V52.5805C19.5601 52.1105 19.9401 51.7305 20.4101 51.7305H27.2401C27.7101 51.7305 28.0901 52.1105 28.0901 52.5805V80.0305C28.0901 82.7105 26.1801 84.8905 23.8201 84.8905ZM21.2601 53.4305V80.0305C21.2601 81.7705 22.4101 83.1905 23.8201 83.1905C25.2301 83.1905 26.3901 81.7705 26.3901 80.0305V53.4305H21.2601Z" fill="#1D1E1E"/>
<path d="M37.9898 46.0394L31.9198 24.2794C31.7698 23.8394 31.6898 23.4894 31.5498 23.1594C30.2698 19.8294 26.4198 19.6494 26.4198 19.6494H12.5298C12.5298 19.6494 8.67985 19.8294 7.39985 23.1594C7.25985 23.4894 7.17985 23.8394 7.02985 24.2794L0.949847 46.0394C0.539847 47.5194 1.39985 49.0394 2.87985 49.4594C4.35985 49.8694 5.88985 49.0094 6.29985 47.5294L11.2698 30.6094H11.3598L5.61985 59.4794H33.3298L27.5898 30.6094H27.6798L32.6498 47.5294C33.0598 49.0094 34.5898 49.8694 36.0698 49.4594C37.5398 49.0494 38.4098 47.5194 37.9998 46.0394H37.9898Z" fill="#E5685C"/>
<path d="M33.34 60.3196H5.60995C5.35995 60.3196 5.10995 60.2096 4.94995 60.0096C4.78995 59.8096 4.71995 59.5596 4.76995 59.3096L6.99995 48.0796C6.46995 49.4596 5.11995 50.4096 3.60995 50.4096C3.27995 50.4096 2.95995 50.3696 2.63995 50.2796C0.719953 49.7396 -0.410047 47.7396 0.119953 45.8196L6.18995 24.0596C6.25995 23.8396 6.30995 23.6896 6.34995 23.5396C6.42995 23.2896 6.49995 23.0596 6.58995 22.8396C8.03995 19.0596 12.29 18.8196 12.47 18.8096H26.4C26.62 18.8096 30.87 19.0496 32.33 22.8596C32.41 23.0596 32.48 23.2896 32.56 23.5396C32.6 23.6896 32.65 23.8396 32.71 24.0096L38.79 45.8196C39.33 47.7396 38.19 49.7496 36.27 50.2796C35.95 50.3696 35.62 50.4096 35.3 50.4096C33.79 50.4096 32.44 49.4596 31.91 48.0696L34.11 59.1296C34.16 59.2296 34.18 59.3496 34.18 59.4696C34.18 59.9396 33.8 60.3196 33.33 60.3196H33.34ZM6.64995 58.6196H32.29L26.75 30.7696C26.7 30.5196 26.77 30.2596 26.93 30.0696C27.33 29.5796 28.31 29.7596 28.49 30.3696L33.46 47.2896C33.69 48.1296 34.46 48.7096 35.32 48.7096C35.49 48.7096 35.67 48.6896 35.84 48.6396C36.86 48.3596 37.46 47.2896 37.18 46.2696L31.11 24.5096C31.06 24.3696 31.01 24.1896 30.96 24.0296C30.9 23.8396 30.85 23.6596 30.78 23.4896C29.71 20.7096 26.52 20.5096 26.39 20.4996H12.54C12.45 20.4996 9.25995 20.7096 8.19995 23.4596C8.11995 23.6496 8.06995 23.8296 8.00995 24.0196C7.95995 24.1796 7.90995 24.3596 7.83995 24.5496L1.76995 46.2596C1.48995 47.2796 2.08995 48.3396 3.10995 48.6296C4.10995 48.9096 5.19995 48.2896 5.47995 47.2896L10.45 30.3596C10.56 29.9996 10.89 29.7496 11.27 29.7496C11.52 29.7496 11.81 29.8596 11.97 30.0596C12.13 30.2596 12.24 30.5196 12.19 30.7696L6.64995 58.6196Z" fill="#1D1E1E"/>
</g>
<defs>
<clipPath id="clip0_1_875">
<rect width="38.94" height="84.89" fill="white"/>
</clipPath>
</defs>
</svg>
