<svg width="35" height="61" viewBox="0 0 35 61" fill="none" xmlns="http://www.w3.org/2000/svg">
<path d="M14 59L26 47L18.5 14L21.479 6.053C21.6491 5.59922 21.7067 5.11098 21.647 4.63007C21.5872 4.14915 21.4118 3.68987 21.1359 3.29152C20.8599 2.89316 20.4915 2.5676 20.0622 2.34268C19.633 2.11776 19.1556 2.00018 18.671 2H9.329C8.84438 2.00018 8.36703 2.11776 7.93777 2.34268C7.50851 2.5676 7.14013 2.89316 6.86414 3.29152C6.58816 3.68987 6.41278 4.14915 6.35302 4.63007C6.29327 5.11098 6.3509 5.59922 6.521 6.053L9.5 14L2 47L14 59Z" stroke="black" stroke-width="2.5" stroke-linecap="round" stroke-linejoin="round"/>
<path d="M9.5 14H18.5L33.5 30.5" stroke="black" stroke-width="2.5" stroke-linecap="round" stroke-linejoin="round"/>
</svg>
