<svg width="20" height="20" viewBox="0 0 20 20" fill="none" xmlns="http://www.w3.org/2000/svg">
<g clip-path="url(#clip0_1_2489)">
<path d="M3.33337 6.66667V5C3.33337 4.55797 3.50897 4.13405 3.82153 3.82149C4.13409 3.50893 4.55801 3.33333 5.00004 3.33333H6.66671" stroke="white" stroke-width="1.5" stroke-linecap="round" stroke-linejoin="round"/>
<path d="M3.33337 13.3333V15C3.33337 15.442 3.50897 15.866 3.82153 16.1785C4.13409 16.4911 4.55801 16.6667 5.00004 16.6667H6.66671" stroke="white" stroke-width="1.5" stroke-linecap="round" stroke-linejoin="round"/>
<path d="M13.3334 3.33333H15C15.4421 3.33333 15.866 3.50893 16.1786 3.82149C16.4911 4.13405 16.6667 4.55797 16.6667 5V6.66667" stroke="white" stroke-width="1.5" stroke-linecap="round" stroke-linejoin="round"/>
<path d="M13.3334 16.6667H15C15.4421 16.6667 15.866 16.4911 16.1786 16.1785C16.4911 15.866 16.6667 15.442 16.6667 15V13.3333" stroke="white" stroke-width="1.5" stroke-linecap="round" stroke-linejoin="round"/>
<path d="M5.83337 10C8.61087 6.11083 11.3892 6.11083 14.1667 10" stroke="white" stroke-width="1.5" stroke-linecap="round" stroke-linejoin="round"/>
<path d="M5.83337 10C8.61087 13.8892 11.3892 13.8892 14.1667 10" stroke="white" stroke-width="1.5" stroke-linecap="round" stroke-linejoin="round"/>
<path d="M9.99837 10H9.9917" stroke="white" stroke-width="1.5" stroke-linecap="round" stroke-linejoin="round"/>
</g>
<defs>
<clipPath id="clip0_1_2489">
<rect width="20" height="20" fill="white"/>
</clipPath>
</defs>
</svg>
