<svg width="158" height="57" viewBox="0 0 158 57" fill="none" xmlns="http://www.w3.org/2000/svg">
<g clip-path="url(#clip0_1_2499)">
<path d="M111.515 19.9396C111.685 23.7489 113.988 26.2165 118.185 27.0715C119.879 27.4143 122.607 27.6895 122.607 27.6895V0.13121H110.787C110.787 0.13121 111.341 15.961 111.515 19.9396Z" fill="#F6AB00"/>
<path d="M111.515 37.1873C111.341 41.1744 110.792 57 110.792 57H122.607V29.4544C122.607 29.4544 119.879 29.7126 118.185 30.0555C113.988 30.9104 111.681 33.378 111.515 37.1873Z" fill="#F6AB00"/>
<path d="M33.0344 34.4616C39.7682 31.7019 43.8671 26.5128 43.8671 18.5598C43.8714 7.78369 36.1544 0.0973473 24.2831 0.0973473H0V57H11.386V10.6745H24.2831C29.8634 10.6745 32.9195 14.0691 32.9195 18.5598C32.9195 23.0506 29.0674 26.3096 23.6191 26.3096H16.4725C15.8596 26.3096 15.3446 26.8345 15.8511 27.6471C19.0902 32.8278 28.1778 47.5487 31.102 52.268C31.8029 53.3995 32.1576 53.9709 32.1661 53.9822C33.4558 55.8699 35.5926 56.9915 37.8783 56.9915H46.421C46.8296 56.9915 46.8637 56.6825 46.6636 56.3566C46.0933 55.4424 33.0344 34.4573 33.0344 34.4573V34.4616Z" fill="#F6AB00"/>
<path d="M139.957 28.4979C142.975 23.7955 157.37 1.38828 157.881 0.605257C158.085 0.292047 158.047 0 157.642 0H145.35C145.35 0 130.401 22.9744 127.119 27.9984C126.992 28.1297 126.911 28.2905 126.915 28.481V28.5063C126.907 28.6968 126.987 28.8619 127.119 28.9889C130.401 34.0172 143.371 54.0922 143.379 54.1092C144.669 55.9122 146.405 56.9915 149.095 56.9915H157.642C158.051 56.9915 158.085 56.6953 157.881 56.382C157.37 55.599 142.975 33.1918 139.957 28.4937V28.4979Z" fill="#F6AB00"/>
<path d="M107.446 37.1873C107.276 33.378 104.973 30.9104 100.776 30.0555C99.082 29.7126 96.3536 29.4544 96.3536 29.4544V57H108.259C108.259 57 107.501 38.4444 107.446 37.1916V37.1873Z" fill="#F6AB00"/>
<path d="M96.3536 27.6895C96.3536 27.6895 99.082 27.4143 100.776 27.0715C104.973 26.2165 107.28 23.7489 107.446 19.9396C107.62 15.9568 108.259 0.126977 108.259 0.126977L93.1953 0.0931168L78.8255 31.5242L64.4557 0.0973493H49.8645V57H61.2505V20.1978L71.6746 41.7924C71.7427 41.9575 71.8151 42.1141 71.8832 42.2368L71.9087 42.2876C72.8026 43.9256 74.5222 44.9414 76.395 44.9414H84.5079L96.3579 20.2952V27.6937L96.3536 27.6895Z" fill="#F6AB00"/>
</g>
<defs>
<clipPath id="clip0_1_2499">
<rect width="158" height="57" fill="white"/>
</clipPath>
</defs>
</svg>
