<svg width="12" height="19" viewBox="0 0 12 19" fill="none" xmlns="http://www.w3.org/2000/svg">
<path d="M8.09259 0C8.65195 0 9.25641 0.108262 9.90598 0.324786C10.5736 0.523267 11.0608 0.766857 11.3675 1.05556L10.0954 4.14103C9.80674 3.97863 9.5 3.86135 9.17521 3.78917C8.85043 3.717 8.57977 3.68091 8.36325 3.68091C7.76781 3.68091 7.31671 3.86135 7.00997 4.22222C6.70323 4.56505 6.54986 5.03419 6.54986 5.62963V6.57692H9.79772L10.4744 10.0684H6.54986V19H2.11111V10.0684H0V6.57692H2.11111V5.11539C2.11111 3.43732 2.68851 2.16524 3.8433 1.29915C5.01614 0.433049 6.43257 0 8.09259 0Z" fill="white"/>
</svg>
