<svg width="16" height="19" viewBox="0 0 16 19" fill="none" xmlns="http://www.w3.org/2000/svg">
<path d="M13.4533 7.66416C12.5101 6.57378 10.9406 5.62348 9.43154 5.6727C7.66214 5.73328 6.16814 6.05888 5.04009 7.02432H4.98727V0.0541992H0.814636V18.2992H4.9835V17.4132H5.03632C5.93423 18.0985 7.14527 18.5983 8.80904 18.5983C10.6464 18.5983 12.3328 18.072 13.4306 16.8302C14.5323 15.5884 15.0755 14.4109 15.0755 12.3551C15.0755 10.4621 14.3889 8.75455 13.4495 7.66416H13.4533ZM9.8805 14.4677C9.30704 15.0432 8.62041 15.3309 7.81304 15.3309C7.00568 15.3309 6.34545 15.0432 5.77954 14.4677C5.21741 13.8922 4.93445 13.1956 4.93445 12.3778C4.93445 11.56 5.21741 10.8634 5.77954 10.2879C6.34168 9.71242 7.02077 9.42468 7.81304 9.42468C8.60532 9.42468 9.30327 9.71242 9.8805 10.2879C10.454 10.8634 10.7407 11.56 10.7407 12.3778C10.7407 13.1956 10.454 13.8922 9.8805 14.4677Z" fill="white"/>
</svg>
